<svg width="146" height="146" viewBox="0 0 146 146" fill="none" xmlns="http://www.w3.org/2000/svg">
<path d="M52 54.4134C52 49.4895 46.9595 46.1743 42.4383 48.1246L6.99519 63.4138C3.35662 64.9834 1 68.5665 1 72.5292V72.5292C1 76.4622 3.32188 80.0244 6.92025 81.6119L42.4862 97.3027C46.9665 99.2793 52 95.9984 52 91.1015V91.1015C52 88.3236 50.3051 85.827 47.7234 84.8019L18 73L47.7588 60.7464C50.3251 59.6897 52 57.1887 52 54.4134V54.4134Z" fill="#7F5AF0"/>
<path d="M93 54.4134C93 49.4895 98.0405 46.1743 102.562 48.1246L138.005 63.4138C141.643 64.9834 144 68.5665 144 72.5292V72.5292C144 76.4622 141.678 80.0244 138.08 81.6119L102.514 97.3027C98.0335 99.2793 93 95.9984 93 91.1015V91.1015C93 88.3236 94.6949 85.827 97.2767 84.8019L127 73L97.2412 60.7464C94.6749 59.6897 93 57.1887 93 54.4134V54.4134Z" fill="#7F5AF0"/>
<path d="M77.6239 33.9883C78.4369 31.0413 81.1176 29 84.1746 29V29C88.6334 29 91.8839 33.2216 90.7443 37.5322L71.417 110.64C70.5818 113.799 67.7237 116 64.4557 116V116C59.6992 116 56.2497 111.47 57.5146 106.885L77.6239 33.9883Z" fill="#1DCD9F"/>
</svg>
