<svg width="218" height="151" viewBox="0 0 218 151" fill="none" xmlns="http://www.w3.org/2000/svg">
<path d="M18.8955 4.80394C18.8955 2.5948 20.6864 0.80394 22.8955 0.80394H195.606C197.815 0.80394 199.606 2.5948 199.606 4.80394V121.278H18.8955V4.80394Z" fill="#4B4B4B"/>
<rect x="22.5097" y="4.41815" width="173.482" height="109.631" fill="#D9D9D9"/>
<path d="M18.8955 121.278H109.251V146.577H0.824463L18.8955 121.278Z" fill="#979797"/>
<path d="M19.6987 123.687H83.9513V142.963H6.84814L19.6987 123.687Z" fill="#767676"/>
<path d="M199.606 121.278H109.251V146.577H217.677L199.606 121.278Z" fill="#979797"/>
<path d="M0.824463 146.577H217.677V148.191C217.677 149.296 216.782 150.191 215.677 150.191H2.82446C1.7199 150.191 0.824463 149.296 0.824463 148.191V146.577Z" fill="#D9D9D9"/>
<path d="M198.803 123.687H134.55V142.963H211.653L198.803 123.687Z" fill="#767676"/>
<path d="M140.976 123.687H76.7229V142.963H153.826L140.976 123.687Z" fill="#767676"/>
</svg>
